# xmcd
#
# Track frame offsets:
#  150
#  15470
#  30734
#  46845
#  62386
#  78338
#  93582
#  105545
#  121963
#  138507
#  153559
#  170335
#  185752
#  201464
#  214174
#  229385
#  245932
#  257424
#  271213
#  283261
#
# Disc length: 3989 seconds
#
# Revision: 1
# Processed by: cddbd v1.5.2PL0 Copyright (c) Steve Scherf et al.
# Submitted via: AltoMP3_Maker 3.0
#
DISCID=230f9314
DTITLE=Varios - Schlager Marathon 2009 - Radio Paloma
DYEAR=1900
DGENRE=
TTITLE0=Ein Stern (der deinen Namen trägt)
TTITLE1=Ich bin verliebt in deine himmelblauen Augen
TTITLE2=Hello Again (2009)
TTITLE3=Lass uns noch einmal lügen
TTITLE4=Sieben Sünden
TTITLE5=Du bist alles auf dieser Welt
TTITLE6=Marmor, Stein und Eisen bricht
TTITLE7=Verdammt ich lieb`dich
TTITLE8=Tu`s doch tu`s
TTITLE9=Ich wär`so gern wie du (2009)
TTITLE10=Bis dann Susann
TTITLE11=Die Bouzouki klang durch die Sommernacht
TTITLE12=Für immer jung
TTITLE13=Rote Rosen
TTITLE14=Der Mann nach mir
TTITLE15=Hast du heute schon gelächelt
TTITLE16=Buona Fortuna
TTITLE17=Er sieht verdammt gut aus
TTITLE18=Ich denk`so gern an Billy Vaughn
TTITLE19=Eine weiße Rose
EXTD=
EXTT0=
EXTT1=
EXTT2=
EXTT3=
EXTT4=
EXTT5=
EXTT6=
EXTT7=
EXTT8=
EXTT9=
EXTT10=
EXTT11=
EXTT12=
EXTT13=
EXTT14=
EXTT15=
EXTT16=
EXTT17=
EXTT18=
EXTT19=
PLAYORDER=
